<?xml version="1.0" standalone="no"?>
<!DOCTYPE svg PUBLIC "-//W3C//DTD SVG 20010904//EN"
 "http://www.w3.org/TR/2001/REC-SVG-20010904/DTD/svg10.dtd">
<svg version="1.0" xmlns="http://www.w3.org/2000/svg"
 width="1024.000000pt" height="1024.000000pt" viewBox="0 0 1024.000000 1024.000000"
 preserveAspectRatio="xMidYMid meet">

<g transform="translate(0.000000,1024.000000) scale(0.100000,-0.100000)"
fill="#003932" stroke="none">
<path d="M4970 8674 c-429 -37 -655 -80 -990 -189 -394 -129 -867 -379 -1160
-613 -773 -619 -1241 -1514 -1330 -2542 -31 -362 29 -869 152 -1284 72 -244
240 -614 381 -843 76 -122 241 -347 337 -458 243 -282 590 -566 905 -742 627
-350 1208 -508 1870 -507 849 0 1664 287 2332 820 425 339 736 733 979 1239
292 609 406 1367 308 2045 -97 662 -415 1353 -844 1830 -90 100 -164 172 -175
172 -4 -1 -33 -41 -65 -89 -32 -48 -85 -117 -118 -153 l-59 -65 94 -105 c102
-112 247 -308 336 -455 152 -250 291 -584 367 -882 205 -796 74 -1678 -356
-2395 -256 -426 -613 -781 -1074 -1070 -305 -191 -732 -359 -1080 -427 -427
-82 -856 -81 -1275 4 -464 94 -870 272 -1305 571 -339 233 -587 495 -830 876
-237 372 -390 799 -455 1269 -22 160 -30 504 -16 669 53 606 280 1182 670
1695 98 130 368 400 496 497 507 383 1074 622 1690 710 144 21 661 17 805 -5
286 -45 655 -149 857 -242 l72 -33 48 44 c65 61 283 224 300 224 35 0 2 22
-124 83 -389 186 -751 287 -1178 331 -150 16 -481 27 -565 20z"/>
<path d="M7245 8289 c-124 -18 -277 -89 -416 -194 -365 -274 -738 -693 -1548
-1740 -89 -115 -166 -211 -170 -213 -5 -1 -32 13 -62 33 -89 59 -136 70 -289
70 -116 0 -145 -3 -203 -24 -130 -44 -293 -174 -380 -302 -77 -113 -113 -278
-88 -400 l12 -56 45 -7 c92 -12 186 -71 254 -158 23 -29 57 -64 75 -78 19 -14
85 -66 147 -117 l113 -92 11 37 c11 35 12 33 13 -41 1 -84 -24 -642 -39 -847
-9 -139 0 -112 -195 -565 -183 -426 -395 -827 -613 -1159 -90 -135 -91 -139
-33 -78 134 140 329 415 474 667 124 216 299 576 427 875 l57 135 7 175 c4 96
15 337 24 535 l17 360 44 -80 44 -79 36 72 c19 40 38 72 42 72 3 0 9 -21 12
-47 4 -27 26 -203 51 -393 25 -190 52 -403 61 -475 l15 -130 95 -190 c333
-668 625 -1113 938 -1430 66 -66 107 -104 92 -85 -228 297 -440 621 -613 935
-77 140 -279 547 -340 685 -56 127 -53 110 -132 730 -16 129 -39 298 -49 376
-11 77 -23 223 -27 324 l-7 184 39 -24 c21 -13 86 -55 144 -95 58 -39 160
-106 228 -149 98 -63 126 -85 137 -113 34 -82 232 -632 324 -902 84 -246 106
-301 133 -329 49 -51 326 -282 461 -384 139 -104 427 -296 542 -360 104 -59
327 -163 295 -138 -14 10 -127 92 -252 180 -348 247 -578 437 -829 682 l-137
133 -88 255 c-131 382 -210 606 -245 693 l-31 78 40 43 c22 24 52 62 67 85 15
22 29 41 30 41 3 0 -62 -187 -80 -232 -8 -19 0 -27 129 -142 42 -37 79 -67 80
-65 37 42 135 161 148 180 11 15 7 -6 -13 -61 -17 -47 -36 -98 -41 -115 -6
-16 -16 -36 -21 -43 -13 -16 4 -30 146 -133 55 -39 102 -67 107 -63 4 5 40 56
80 114 77 113 77 114 25 -62 l-32 -108 51 -32 c28 -17 99 -57 158 -88 l107
-57 52 108 c29 60 54 107 56 106 4 -4 -26 -227 -32 -237 -5 -8 127 -57 225
-84 209 -58 436 -82 631 -66 73 6 134 12 135 13 5 5 -346 320 -462 415 -342
280 -788 571 -1223 797 l-153 80 -34 93 c-18 52 -40 105 -49 118 l-16 24 -73
-55 c-40 -30 -77 -55 -82 -55 -5 0 -57 21 -114 46 -58 26 -186 79 -285 119
-149 61 -181 77 -187 97 -42 149 -41 139 -21 154 10 7 185 97 388 198 1020
509 1503 820 1815 1168 234 260 321 510 241 694 -27 62 -100 136 -161 163 -40
17 -158 43 -185 40 -5 -1 -37 -5 -70 -10z"/>
<path d="M3091 7272 c-60 -30 -76 -62 -76 -155 0 -73 4 -89 33 -147 110 -218
436 -505 973 -857 l130 -85 67 63 c37 35 69 64 71 66 5 4 -23 39 -224 282
-515 625 -669 780 -820 833 -64 22 -111 22 -154 0z"/>
<path d="M7114 6865 c-99 -29 -192 -70 -499 -220 -419 -204 -691 -334 -1030
-491 l-330 -153 2 -31 c0 -17 4 -34 7 -37 12 -12 663 77 901 123 530 103 912
267 1113 478 83 87 116 151 116 222 0 124 -98 163 -280 109z"/>
<path d="M3479 5944 c-5 -290 -16 -1070 -14 -1071 1 -3 135 67 135 70 0 1 3
92 5 202 3 110 8 295 11 412 l6 211 37 -13 c67 -24 276 -116 285 -126 18 -17
24 -9 30 39 4 26 9 59 12 73 6 30 2 32 -301 156 -99 41 -186 76 -192 79 -9 4
-13 -5 -14 -32z"/>
<path d="M3995 5401 c-141 -37 -233 -153 -238 -301 -1 -41 1 -91 6 -111 l7
-36 -127 -63 c-180 -89 -264 -117 -404 -137 -102 -14 -137 -15 -223 -5 -180
20 -333 80 -461 182 -62 49 -153 142 -193 195 -22 30 -22 30 -13 3 18 -50 70
-133 126 -201 100 -121 226 -198 388 -237 229 -56 421 -31 718 95 46 19 85 35
87 35 11 0 -94 -80 -166 -127 -190 -123 -380 -206 -547 -239 -66 -13 -140 -18
-282 -18 -201 -1 -205 -3 -63 -38 65 -16 118 -21 220 -22 177 0 291 25 456 99
74 34 328 196 429 274 33 26 74 56 90 68 l31 21 58 -39 c32 -21 67 -39 77 -39
24 0 24 13 -1 -281 l-21 -239 -91 -168 c-203 -373 -352 -591 -537 -784 -40
-43 -70 -78 -66 -78 3 0 46 33 93 74 178 152 404 441 597 763 l115 193 10 112
c35 399 33 386 78 394 54 9 148 62 184 103 55 62 82 136 83 221 0 66 -5 85
-33 143 -56 114 -162 185 -289 192 -37 2 -81 1 -98 -4z"/>
<path d="M3505 4520 l-60 -48 -6 -99 c-4 -54 -7 -144 -8 -199 l-1 -102 -56
-78 c-123 -172 -336 -416 -568 -651 -110 -112 -196 -203 -191 -203 16 0 204
131 281 197 124 105 384 364 529 526 l132 148 7 122 c15 289 19 437 10 436 -5
0 -36 -22 -69 -49z"/>
</g>
</svg>
