<svg xmlns="http://www.w3.org/2000/svg" transform="rotate(0) scale(1, 1)" viewBox="574 377 861 914">
    <path d="M1383,1171 L1383,1185 L1400,1185 L1401,1186 L1401,1290 L1417,1290 L1417,1186 L1418,1185 L1435,1185 L1435,1171 Z" fill="#213ca8cc" stroke="none"/>
    <path d="M1336,1171 L1293,1171 L1293,1291 L1308,1291 L1308,1238 L1309,1237 L1333,1237 L1333,1223 L1309,1223 L1308,1222 L1308,1186 L1309,1185 L1336,1185 Z" fill="#213ca8cc" stroke="none"/>
    <path d="M908,1171 L908,1175 L907,1176 L907,1180 L906,1181 L906,1184 L905,1185 L905,1189 L904,1190 L904,1194 L903,1195 L903,1198 L902,1199 L902,1203 L901,1204 L901,1208 L900,1209 L900,1212 L899,1213 L899,1217 L898,1218 L898,1222 L897,1223 L897,1226 L896,1227 L896,1231 L895,1232 L895,1235 L894,1236 L894,1240 L893,1241 L893,1245 L892,1246 L892,1249 L891,1250 L891,1254 L890,1255 L890,1259 L889,1260 L889,1263 L888,1264 L888,1268 L887,1269 L887,1273 L886,1274 L886,1277 L885,1278 L885,1282 L884,1283 L884,1287 L883,1288 L883,1290 L898,1290 L899,1289 L899,1285 L900,1284 L900,1279 L901,1278 L901,1274 L902,1273 L902,1268 L903,1267 L927,1267 L928,1268 L928,1270 L929,1271 L929,1276 L930,1277 L930,1281 L931,1282 L931,1286 L932,1287 L932,1290 L948,1290 L948,1289 L947,1288 L947,1284 L946,1283 L946,1280 L945,1279 L945,1275 L944,1274 L944,1270 L943,1269 L943,1266 L942,1265 L942,1261 L941,1260 L941,1256 L940,1255 L940,1252 L939,1251 L939,1247 L938,1246 L938,1243 L937,1242 L937,1238 L936,1237 L936,1233 L935,1232 L935,1229 L934,1228 L934,1224 L933,1223 L933,1219 L932,1218 L932,1215 L931,1214 L931,1210 L930,1209 L930,1206 L929,1205 L929,1201 L928,1200 L928,1196 L927,1195 L927,1192 L926,1191 L926,1187 L925,1186 L925,1182 L924,1181 L924,1178 L923,1177 L923,1173 L922,1172 L922,1171 Z" fill="#213ca8cc" stroke="none"/>
    <path d="M810,1171 L810,1290 L826,1290 L826,1171 Z" fill="#213ca8cc" stroke="none"/>
    <path d="M701,1171 L701,1290 L717,1290 L717,1236 L718,1235 L720,1237 L720,1239 L721,1240 L721,1242 L722,1243 L722,1245 L723,1246 L723,1248 L724,1249 L724,1251 L725,1252 L725,1254 L726,1255 L726,1257 L727,1258 L727,1260 L728,1261 L728,1263 L729,1264 L729,1266 L730,1267 L730,1269 L731,1270 L731,1272 L732,1273 L732,1275 L733,1276 L733,1278 L734,1279 L734,1281 L735,1282 L735,1284 L736,1285 L736,1287 L737,1288 L737,1290 L754,1290 L754,1288 L753,1287 L753,1285 L752,1284 L752,1283 L751,1282 L751,1280 L750,1279 L750,1277 L749,1276 L749,1274 L748,1273 L748,1271 L747,1270 L747,1269 L746,1268 L746,1266 L745,1265 L745,1263 L744,1262 L744,1260 L743,1259 L743,1257 L742,1256 L742,1255 L741,1254 L741,1252 L740,1251 L740,1249 L739,1248 L739,1246 L738,1245 L738,1243 L737,1242 L737,1241 L736,1240 L736,1238 L735,1237 L735,1235 L734,1234 L736,1232 L737,1232 L738,1231 L739,1231 L740,1230 L741,1230 L746,1225 L746,1224 L747,1223 L747,1222 L748,1221 L748,1220 L749,1219 L749,1217 L750,1216 L750,1211 L751,1210 L751,1194 L750,1193 L750,1189 L749,1188 L749,1186 L748,1185 L748,1183 L746,1181 L746,1180 L740,1174 L739,1174 L738,1173 L737,1173 L736,1172 L734,1172 L733,1171 Z" fill="#213ca8cc" stroke="none"/>
    <path d="M598,1171 L598,1185 L615,1185 L616,1186 L616,1290 L632,1290 L632,1186 L633,1185 L650,1185 L650,1171 Z" fill="#213ca8cc" stroke="none"/>
    <path d="M1191,1169 L1190,1170 L1188,1170 L1187,1171 L1185,1171 L1184,1172 L1183,1172 L1181,1174 L1180,1174 L1176,1178 L1176,1179 L1174,1181 L1174,1183 L1173,1184 L1173,1185 L1172,1186 L1172,1188 L1171,1189 L1171,1193 L1170,1194 L1170,1199 L1169,1200 L1169,1209 L1168,1210 L1168,1253 L1169,1254 L1169,1262 L1170,1263 L1170,1268 L1171,1269 L1171,1271 L1172,1272 L1172,1274 L1173,1275 L1173,1276 L1174,1277 L1174,1278 L1175,1279 L1175,1280 L1176,1281 L1176,1282 L1181,1287 L1182,1287 L1183,1288 L1184,1288 L1185,1289 L1186,1289 L1187,1290 L1190,1290 L1191,1291 L1211,1291 L1212,1290 L1214,1290 L1215,1289 L1217,1289 L1219,1287 L1220,1287 L1222,1285 L1223,1285 L1224,1284 L1224,1283 L1227,1280 L1227,1279 L1228,1278 L1228,1277 L1229,1276 L1229,1275 L1230,1274 L1230,1271 L1231,1270 L1231,1267 L1232,1266 L1232,1261 L1233,1260 L1233,1247 L1234,1246 L1234,1213 L1233,1212 L1233,1202 L1232,1201 L1232,1195 L1231,1194 L1231,1190 L1230,1189 L1230,1187 L1229,1186 L1229,1184 L1228,1183 L1228,1182 L1227,1181 L1227,1180 L1226,1179 L1226,1178 L1222,1174 L1221,1174 L1219,1172 L1218,1172 L1217,1171 L1215,1171 L1214,1170 L1212,1170 L1211,1169 Z" fill="#213ca8cc" stroke="none"/>
    <path d="M1102,1169 L1086,1169 L1085,1170 L1083,1170 L1082,1171 L1081,1171 L1080,1172 L1079,1172 L1077,1174 L1076,1174 L1072,1178 L1072,1179 L1070,1181 L1070,1182 L1069,1183 L1069,1185 L1068,1186 L1068,1188 L1067,1189 L1067,1194 L1066,1195 L1066,1202 L1067,1203 L1067,1208 L1068,1209 L1068,1211 L1069,1212 L1069,1213 L1070,1214 L1070,1215 L1071,1216 L1071,1217 L1072,1218 L1072,1219 L1074,1221 L1074,1222 L1076,1224 L1076,1225 L1080,1229 L1080,1230 L1085,1235 L1085,1236 L1089,1240 L1089,1241 L1093,1245 L1093,1246 L1095,1248 L1095,1249 L1097,1251 L1097,1252 L1098,1253 L1098,1254 L1099,1255 L1099,1257 L1100,1258 L1100,1266 L1099,1267 L1099,1269 L1097,1271 L1097,1272 L1093,1276 L1092,1276 L1091,1277 L1090,1277 L1089,1278 L1079,1278 L1078,1277 L1077,1277 L1076,1276 L1075,1276 L1074,1275 L1073,1275 L1072,1274 L1071,1274 L1070,1273 L1069,1273 L1069,1287 L1070,1287 L1071,1288 L1072,1288 L1073,1289 L1075,1289 L1076,1290 L1078,1290 L1079,1291 L1094,1291 L1095,1290 L1098,1290 L1099,1289 L1100,1289 L1101,1288 L1102,1288 L1104,1286 L1105,1286 L1109,1282 L1109,1281 L1111,1279 L1111,1278 L1112,1277 L1112,1276 L1113,1275 L1113,1273 L1114,1272 L1114,1269 L1115,1268 L1115,1254 L1114,1253 L1114,1250 L1113,1249 L1113,1247 L1112,1246 L1112,1245 L1111,1244 L1111,1243 L1110,1242 L1110,1241 L1108,1239 L1108,1238 L1106,1236 L1106,1235 L1103,1232 L1103,1231 L1100,1228 L1100,1227 L1096,1223 L1096,1222 L1091,1217 L1091,1216 L1088,1213 L1088,1212 L1086,1210 L1086,1209 L1084,1207 L1084,1206 L1083,1205 L1083,1203 L1082,1202 L1082,1199 L1081,1198 L1081,1196 L1082,1195 L1082,1192 L1083,1191 L1083,1190 L1085,1188 L1085,1187 L1087,1185 L1088,1185 L1090,1183 L1091,1183 L1092,1182 L1102,1182 L1103,1183 L1105,1183 L1106,1184 L1108,1184 L1109,1185 L1110,1185 L1111,1186 L1111,1172 L1109,1172 L1108,1171 L1107,1171 L1106,1170 L1103,1170 Z" fill="#213ca8cc" stroke="none"/>
    <path d="M1016,893 L984,932 L948,967 L904,1000 L860,1024 L823,1038 L784,1047 L754,1050 L728,1050 L704,1048 L703,1047 L704,1046 L732,1046 L752,1044 L796,1035 L838,1020 L874,1001 L893,988 L910,974 L938,945 L949,931 L967,903 L985,866 L983,864 L959,856 L932,849 L893,842 L858,839 L830,839 L798,842 L769,848 L742,857 L709,874 L700,881 L681,901 L654,942 L606,1031 L589,1056 L574,1073 L574,1075 L614,1096 L651,1110 L697,1122 L744,1129 L818,1130 L837,1128 L886,1118 L917,1107 L946,1092 L968,1076 L992,1051 L1002,1036 L1011,1018 L1019,993 L1023,967 L1023,935 L1021,917 Z" fill="#213ca8cc" stroke="none"/>
    <path d="M1040,838 L1040,839 L1051,839 L1081,843 L1135,856 L1180,873 L1215,891 L1250,915 L1282,944 L1311,980 L1331,1015 L1330,1017 L1318,999 L1297,973 L1270,946 L1245,926 L1203,901 L1161,885 L1123,877 L1104,875 L1063,875 L1033,879 L1038,905 L1049,940 L1061,970 L1080,1007 L1099,1036 L1116,1057 L1136,1077 L1156,1093 L1173,1104 L1190,1112 L1212,1118 L1227,1120 L1271,1121 L1346,1116 L1392,1116 L1425,1121 L1425,1091 L1417,1041 L1404,996 L1387,954 L1361,906 L1338,873 L1308,839 L1272,809 L1236,789 L1217,782 L1188,776 L1157,776 L1128,782 L1109,789 L1093,797 L1062,818 Z" fill="#213ca8cc" stroke="none"/>
    <path d="M1093,377 L1083,380 L1063,390 L1026,413 L984,447 L948,484 L922,517 L892,566 L877,600 L866,637 L861,677 L862,700 L868,730 L881,760 L898,784 L917,803 L950,826 L983,842 L971,800 L963,753 L961,732 L961,682 L963,662 L971,620 L983,584 L1002,546 L1025,513 L1031,507 L1032,509 L1019,529 L1005,556 L990,595 L981,632 L977,669 L978,705 L986,749 L995,777 L1004,798 L1023,832 L1025,832 L1043,819 L1077,790 L1104,762 L1122,740 L1139,715 L1154,688 L1163,667 L1172,637 L1176,614 L1176,589 L1170,561 L1153,518 L1110,431 L1098,399 Z" fill="#213ca8cc" stroke="none"/>
</svg>